<?xml version="1.0" encoding="utf-8"?>
<!-- Generator: Adobe Illustrator 17.1.0, SVG Export Plug-In . SVG Version: 6.00 Build 0)  -->
<!DOCTYPE svg PUBLIC "-//W3C//DTD SVG 1.1//EN" "http://www.w3.org/Graphics/SVG/1.1/DTD/svg11.dtd">
<svg version="1.1" id="Layer_1" xmlns="http://www.w3.org/2000/svg" xmlns:xlink="http://www.w3.org/1999/xlink" x="0px" y="0px"
	 viewBox="0 0 24 16.976" enable-background="new 0 0 24 16.976" xml:space="preserve">
<g>
	<path fill="#E1CE9B" d="M20.125,8.177c0.205,0,0.412-0.062,0.59-0.193l1.92-1.408c0.445-0.327,0.542-0.953,0.215-1.398
		c-0.326-0.445-0.951-0.541-1.398-0.215l-1.92,1.408c-0.445,0.327-0.542,0.952-0.215,1.397C19.513,8.035,19.817,8.177,20.125,8.177z
		"/>
	<path fill="#E1CE9B" d="M15.989,4.329c0.105,0.035,0.211,0.052,0.316,0.052c0.419,0,0.809-0.266,0.949-0.685l0.792-2.38
		c0.174-0.524-0.109-1.09-0.633-1.265c-0.527-0.176-1.09,0.109-1.265,0.633l-0.792,2.38C15.182,3.589,15.465,4.155,15.989,4.329z"/>
	<path fill="#E1CE9B" d="M7.528,3.697c0.14,0.419,0.53,0.685,0.949,0.685c0.104,0,0.211-0.017,0.316-0.052
		C9.316,4.155,9.6,3.589,9.425,3.065l-0.792-2.38C8.458,0.162,7.896-0.124,7.369,0.052c-0.524,0.174-0.807,0.74-0.633,1.265
		L7.528,3.697z"/>
	<path fill="#E1CE9B" d="M2.99,7.974C3.17,8.11,3.382,8.177,3.593,8.177c0.302,0,0.601-0.137,0.798-0.396
		c0.333-0.44,0.248-1.067-0.193-1.401L2.341,4.972C1.902,4.639,1.275,4.725,0.94,5.165c-0.333,0.44-0.248,1.067,0.193,1.401
		L2.99,7.974z"/>
	<path fill="#E1CE9B" d="M23,11.976h-3.213c-0.476-4.044-3.81-7.082-7.98-7.082c-4.17,0-7.504,3.038-7.98,7.082H1
		c-0.552,0-1,0.447-1,1s0.448,1,1,1h3.768c0.552,0,1-0.447,1-1c0-3.41,2.652-6.082,6.038-6.082c3.386,0,6.039,2.672,6.039,6.082
		c0,0.553,0.448,1,1,1H23c0.552,0,1-0.447,1-1S23.552,11.976,23,11.976z"/>
	<path fill="#CEA32B" d="M12.706,9.269c-0.391-0.391-1.023-0.391-1.414,0l-2.999,2.999c-0.391,0.391-0.391,1.023,0,1.414
		C8.488,13.878,8.744,13.975,9,13.975s0.512-0.098,0.707-0.293L11,12.389v3.587c0,0.553,0.448,1,1,1s1-0.447,1-1v-3.585l1.24,1.24
		c0.391,0.391,1.023,0.391,1.414,0s0.391-1.023,0-1.414L12.706,9.269z"/>
</g>
</svg>
