<?xml version="1.0" encoding="utf-8"?>
<!-- Generator: Adobe Illustrator 17.1.0, SVG Export Plug-In . SVG Version: 6.00 Build 0)  -->
<!DOCTYPE svg PUBLIC "-//W3C//DTD SVG 1.1//EN" "http://www.w3.org/Graphics/SVG/1.1/DTD/svg11.dtd">
<svg version="1.1" id="Layer_1" xmlns="http://www.w3.org/2000/svg" xmlns:xlink="http://www.w3.org/1999/xlink" x="0px" y="0px"
	 viewBox="0 0 24 17" enable-background="new 0 0 24 17" xml:space="preserve">
<g>
	<path fill="#F2A8A5" d="M20.125,7.959c0.205,0,0.412-0.061,0.59-0.188l1.92-1.37c0.445-0.318,0.542-0.927,0.215-1.361
		c-0.326-0.433-0.952-0.527-1.398-0.21l-1.92,1.37c-0.445,0.318-0.542,0.927-0.215,1.36C19.513,7.821,19.817,7.959,20.125,7.959z"/>
	<path fill="#F2A8A5" d="M15.989,4.214c0.105,0.034,0.211,0.05,0.316,0.05c0.419,0,0.809-0.259,0.949-0.666l0.792-2.317
		c0.174-0.51-0.109-1.061-0.633-1.231c-0.525-0.172-1.09,0.106-1.265,0.616l-0.792,2.317C15.182,3.493,15.465,4.045,15.989,4.214z"
		/>
	<path fill="#F2A8A5" d="M7.528,3.598c0.14,0.408,0.53,0.666,0.949,0.666c0.104,0,0.211-0.016,0.316-0.05
		C9.316,4.045,9.6,3.494,9.425,2.983L8.633,0.667c-0.174-0.51-0.739-0.788-1.265-0.616C6.845,0.22,6.562,0.771,6.736,1.282
		L7.528,3.598z"/>
	<path fill="#F2A8A5" d="M2.99,7.761C3.17,7.894,3.382,7.959,3.593,7.959c0.302,0,0.601-0.133,0.798-0.385
		C4.724,7.145,4.638,6.535,4.198,6.21L2.341,4.84c-0.44-0.325-1.066-0.24-1.401,0.188C0.607,5.456,0.693,6.066,1.133,6.391
		L2.99,7.761z"/>
	<path fill="#F2A8A5" d="M23,11.976h-3.213c-0.476-4-3.81-6.894-7.98-6.894c-4.17,0-7.504,2.894-7.98,6.894H1c-0.552,0-1,0.462-1,1
		c0,0.538,0.448,1,1,1h3.768c0.552,0,1-0.621,1-1.159c0-3.319,2.652-6.013,6.038-6.013c3.386,0,6.039,2.74,6.039,6.06
		c0,0.538,0.448,1.113,1,1.113H23c0.552,0,1-0.462,1-1C24,12.438,23.552,11.976,23,11.976z"/>
</g>
<path fill="#CF2C27" d="M14.24,12.42L13,13.627V9.711c0-0.538-0.448-0.973-1-0.973s-1,0.435-1,0.973v4.016l-1.293-1.259
	c-0.391-0.38-1.023-0.38-1.414,0c-0.391,0.38-0.391,0.996,0,1.376l2.948,2.87C11.437,16.905,11.692,17,11.948,17
	s0.512-0.095,0.707-0.285l2.999-2.918c0.391-0.38,0.391-0.996,0-1.376S14.631,12.04,14.24,12.42z"/>
</svg>
